HIERARCHY
ROOT Hips
{
   OFFSET 0.00000 0.00000 0.00000
   CHANNELS 6 Xposition Yposition Zposition Zrotation Xrotation Yrotation
   JOINT RightUpLeg
   {
      OFFSET -8.945800 -8.667070 0.101652
      CHANNELS 3 Zrotation Xrotation Yrotation
      JOINT RightLeg
      {
         OFFSET 0.000000 -44.422697 1.372700
         CHANNELS 3 Zrotation Xrotation Yrotation
         JOINT RightFoot
         {
            OFFSET 0.253549 -42.092399 -1.460590
            CHANNELS 3 Zrotation Xrotation Yrotation
            JOINT RightToes
            {
               OFFSET 0.040000 -4.415090 8.499099
               CHANNELS 3 Zrotation Xrotation Yrotation
               End Site
               {
                  OFFSET -0.080000 -0.137448 9.779790
               }
            }
         }
      }
   }
   JOINT Spine
   {
      OFFSET 0.000000 11.890501 0.000000
      CHANNELS 3 Zrotation Xrotation Yrotation
      JOINT Spine1
      {
         OFFSET 0.000000 25.657401 0.127663
         CHANNELS 3 Zrotation Xrotation Yrotation
         JOINT HEad
         {
            OFFSET 0.000000 8.734161 0.011341
            CHANNELS 3 Zrotation Xrotation Yrotation
            End Site
            {
               OFFSET -0.290000 12.774200 2.513950
            }
         }
         JOINT LeftShoulder1
         {
            OFFSET 8.990000 -0.362252 -0.220000
            CHANNELS 3 Zrotation Xrotation Yrotation
            JOINT LeftArm
            {
               OFFSET 10.282700 -0.003380 0.322123
               CHANNELS 3 Zrotation Xrotation Yrotation
               JOINT LeftForeArm
               {
                  OFFSET 32.766900 0.099144 -1.424340
                  CHANNELS 3 Zrotation Xrotation Yrotation
                  JOINT LeftHand
                  {
                     OFFSET 27.564301 0.085362 1.022160
                     CHANNELS 3 Zrotation Xrotation Yrotation
                     End Site
                     {
                        OFFSET 16.744301 -0.600000 1.502910
                     }
                  }
               }
            }
         }
         JOINT RightShoulder
         {
            OFFSET -8.990000 -0.362252 -0.220000
            CHANNELS 3 Zrotation Xrotation Yrotation
            JOINT RightArm
            {
               OFFSET -10.282700 -0.003380 0.322123
               CHANNELS 3 Zrotation Xrotation Yrotation
               JOINT RightForeArm
               {
                  OFFSET -32.897098 0.099144 -1.424340
                  CHANNELS 3 Zrotation Xrotation Yrotation
                  JOINT RightHand
                  {
                     OFFSET -27.492101 0.085362 1.022160
                     CHANNELS 3 Zrotation Xrotation Yrotation
                     End Site
                     {
                        OFFSET -16.631201 -0.600000 1.502910
                     }
                  }
               }
            }
         }
      }
   }
   JOINT LeftUpLeg
   {
      OFFSET 8.945800 -8.667070 0.101652
      CHANNELS 3 Zrotation Xrotation Yrotation
      JOINT LeftLeg
      {
         OFFSET 0.000000 -44.422697 1.372700
         CHANNELS 3 Zrotation Xrotation Yrotation
         JOINT LeftFoot
         {
            OFFSET -0.253549 -42.092399 -1.460590
            CHANNELS 3 Zrotation Xrotation Yrotation
            JOINT LeftToes
            {
               OFFSET -0.040000 -4.415090 8.499099
               CHANNELS 3 Zrotation Xrotation Yrotation
               End Site
               {
                  OFFSET 0.080000 -0.047448 9.779790
               }
            }
         }
      }
   }
}
MOTION
Frames: 8
Frame Time: 0.016667
4.38462 102.785 -43.2874 16.0283 15.2482 162.569 12.2122 25.7308 -10.1763 21.2467 31.487 -28.1912 -30.6567 2.74403 -1.61041 0.0462048 0.000533403 0.662642 3.20573 11.2624 -4.18917 -2.69933e-007 -2.24648e-009 -0.0171924 9.31947 -1.10455 -25.974 0 2.38542e-015 -0 -140.564 -41.3421 -105.192 -123.524 30.5897 4.14748 27.2557 22.0406 -26.2236 15.0535 8.64654 -0.893453 130.633 -33.8074 103.817 51.7392 50.0762 34.5494 14.9413 28.9858 4.39509 16.3875 -9.16004 -24.3539 -37.6891 12.3356 75.857 20.5687 -2.96985 1.4612 -1.80354e-010 1.55988e-007 -4.8394e-009 
4.727 103.909 -43.1533 19.0882 18.6289 167.283 14.562 22.479 -16.4924 23.9185 37.3655 -20.8959 -28.1587 2.48693 -1.91744 0.0462048 0.000533403 0.662642 5.54622 14.7849 -7.83811 1.39851e-006 0.00556028 -0.0171924 11.4994 4.33686 -25.806 -3.97569e-016 -7.95139e-016 -3.18055e-015 -138.379 -41.1133 -100.562 -124.071 31.7769 4.19427 27.3588 22.2645 -25.9024 18.2301 8.20669 -3.27321 128.11 -36.5215 102.976 51.1038 49.9339 35.9721 17.3678 28.8669 -23.9041 17.7167 -6.72283 -30.3909 -37.2088 11.6543 75.307 23.3165 -2.87755 1.62248 -1.80352e-010 1.55988e-007 -4.8394e-009 
4.96659 105.048 -43.1569 21.9616 21.054 170.558 14.8585 17.9363 -21.8435 25.7168 42.0125 -14.527 -29.1789 2.86921 -1.88288 0.0462048 0.000533403 0.662642 7.73813 17.4864 -10.717 2.67014e-006 0.00981031 -0.0171711 14.0733 10.9664 -25.4462 9.93923e-016 0 -6.36111e-015 -135.781 -41.2193 -95.7969 -123.912 32.181 4.1935 27.6476 22.3318 -25.8778 21.7428 8.02823 -6.14655 125.414 -38.8996 101.538 47.7111 48.9532 36.0016 18.243 29.0427 -1.39782 19.6768 -5.20756 -35.1701 -36.9997 11.174 75.285 25.6304 -3.16876 1.96491 -1.80351e-010 1.55988e-007 -4.8394e-009 
5.06258 106.243 -43.4182 25.1606 21.8945 171.829 12.3683 12.4576 -26.0976 27.3774 46.1508 -9.44283 -28.8301 2.92799 -1.3952 0.0462048 0.000533403 0.662642 9.7154 19.5603 -12.9058 4.26947e-006 0.0152003 -0.0171108 16.9469 17.1439 -25.5738 3.37934e-015 -1.59028e-015 -3.18055e-015 -132.777 -41.7965 -90.6417 -118.848 28.7843 2.53652 24.7753 25.59 -27.936 25.5501 8.00659 -9.07334 122.674 -41.2339 99.7863 45.992 48.3431 36.5139 17.0446 29.2111 -10.6649 22.2365 -4.79194 -38.908 -36.7924 10.8761 76.2032 27.1007 -3.58032 2.7576 -1.80354e-010 1.55988e-007 -4.83939e-009 
4.99603 107.283 -43.8559 28.8516 21.5561 171.402 8.96025 6.49951 -30.3993 28.2054 49.2905 -5.0269 -29.5602 3.88908 -0.264893 0.0462048 0.000533403 0.662642 11.4753 21.1716 -14.4961 0.00417186 0.0205103 -0.0170167 20.1297 22.8169 -26.1321 -7.95139e-016 -5.96354e-016 3.18055e-015 -129.113 -42.6407 -84.9362 -115.894 26.7071 2.05908 23.6222 27.4054 -29.0533 29.573 8.08922 -12.098 119.885 -43.4871 97.6905 45.2456 48.0374 37.4988 17.393 29.3883 0.997936 25.3452 -5.10365 -41.8937 -36.9441 10.8063 78.1358 27.7918 -4.17307 3.99209 -1.80353e-010 1.55988e-007 -4.8394e-009 
4.78367 108.079 -44.3937 33.0083 20.4107 169.672 5.45388 0.246058 -35.036 28.0138 51.3991 -1.03876 -29.8968 5.72497 1.15885 0.0462048 0.000533403 0.662642 13.0648 22.4493 -15.583 0.0095498 0.0262504 -0.0168942 23.586 27.9358 -27.0899 -4.79568e-015 -5.2181e-016 -3.18055e-015 -124.653 -43.5182 -78.635 -113.868 25.4755 1.96817 33.6941 18.4956 -18.8914 33.7282 8.21165 -15.0496 117.117 -45.7609 95.4041 44.7058 47.825 38.6335 16.7695 29.5332 -5.57462 29.2454 -5.66473 -44.3458 -37.4732 9.91095 82.6921 28.3752 -4.53277 5.52748 -1.80355e-010 1.55988e-007 -4.8394e-009 
4.47825 108.536 -44.9736 37.4874 18.7978 167.059 2.60088 -6.16823 -39.893 26.7318 52.5646 2.62089 -30.3829 8.24299 2.64809 0.0462048 0.000533403 0.662642 15.0258 24.5812 -16.375 0.0217457 0.124761 -0.0167486 26.8329 31.2979 -27.8361 7.95139e-016 -3.18055e-015 3.18055e-015 -120.491 -43.5074 -73.2037 -112.048 24.7633 1.82979 28.5334 24.1013 -23.0041 37.5724 7.31827 -17.4316 114.392 -47.7653 92.8308 41.3517 47.2082 37.9776 16.3496 30.1602 5.94895 33.9776 -6.09101 -46.4176 -38.4029 8.43596 89.1515 28.5796 -4.49901 7.1832 -1.80355e-010 1.55988e-007 -4.8394e-009 
4.14377 108.678 -45.5275 42.0787 17.0199 163.957 0.585012 -12.6466 -44.3091 24.6977 52.8711 5.55165 -30.4817 11.0114 3.76522 0.0462048 0.000533403 0.662642 17.5318 27.3477 -17.0839 0.0311866 0.122311 -0.0165853 29.5439 33.3846 -28.2567 -1.98785e-015 0 -0 -111.639 -42.2659 -63.1226 -104.572 25.0273 -1.81398 28.7823 22.8998 -24.5724 40.897 5.86595 -19.1177 111.764 -49.5898 90.0951 39.4056 46.8487 38.5351 16.0017 29.8865 -13.3303 38.9859 -5.99644 -48.1704 -39.3565 7.34219 95.0175 27.9901 -4.32726 8.79192 -1.80355e-010 1.55988e-007 -4.83939e-009 
